<svg width="1440" height="174" viewBox="0 0 1440 174" fill="none" xmlns="http://www.w3.org/2000/svg">
<path fill-rule="evenodd" clip-rule="evenodd" d="M0 0.0273438L59.625 6.56389C120.375 13.1004 239.625 26.1735 360 48.2972C480.375 70.9237 599.625 103.104 720 109.64C840.375 116.177 959.625 96.5671 1080 90.5333C1200.38 83.9968 1319.62 90.5333 1380.38 93.5502L1440 96.5671V174H1380.38C1319.62 174 1200.38 174 1080 174C959.625 174 840.375 174 720 174C599.625 174 480.375 174 360 174C239.625 174 120.375 174 59.625 174H0V0.0273438Z" fill="#E6301B" fill-opacity="0.8"/>
<path fill-rule="evenodd" clip-rule="evenodd" d="M0 0.0273438L59.625 6.56389C120.375 13.1004 239.625 26.1735 360 48.2972C480.375 70.9237 599.625 103.104 720 109.64C840.375 116.177 959.625 96.5671 1080 90.5333C1200.38 83.9968 1319.62 90.5333 1380.38 93.5502L1440 96.5671V174H1380.38C1319.62 174 1200.38 174 1080 174C959.625 174 840.375 174 720 174C599.625 174 480.375 174 360 174C239.625 174 120.375 174 59.625 174H0V0.0273438Z" stroke="black"/>
<path fill-rule="evenodd" clip-rule="evenodd" d="M0 69.6164L48 83.5342C96 97.452 192 125.288 288 118.329C384 111.37 480 69.6164 576 41.7808C672 13.9452 768 0.0273438 864 0.0273438C960 0.0273438 1056 13.9452 1152 38.3013C1248 62.6575 1344 97.452 1392 114.849L1440 132.247V174H1392C1344 174 1248 174 1152 174C1056 174 960 174 864 174C768 174 672 174 576 174C480 174 384 174 288 174C192 174 96 174 48 174H0V69.6164Z" fill="#06273A" fill-opacity="0.8"/>
</svg>
